<svg width="768" height="1024" viewBox="0 0 768 1024" fill="none" xmlns="http://www.w3.org/2000/svg">
<rect width="256" height="256" transform="matrix(-1 0 0 1 256 0)" fill="#1E88E5"/>
<rect width="256" height="256" transform="matrix(1 0 0 -1 256 256)" fill="#FFD026"/>
<rect x="512" width="256" height="256" fill="#069550"/>
<path d="M512 0C512 33.6184 518.622 66.9076 531.487 97.967C544.352 129.026 563.209 157.248 586.981 181.019C610.752 204.791 638.974 223.648 670.033 236.513C701.092 249.378 734.382 256 768 256L768 0H512Z" fill="#FFD026"/>
<path d="M-3.05176e-05 256C-3.05176e-05 289.618 6.6216 322.908 19.4868 353.967C32.352 385.026 51.2088 413.248 74.9806 437.019C98.7524 460.791 126.974 479.648 158.033 492.513C189.092 505.378 222.382 512 256 512L256 256H-3.05176e-05Z" fill="#1E88E5"/>
<rect width="256" height="256" transform="matrix(1 0 0 -1 256 512)" fill="#069550"/>
<path d="M512 256C512 289.618 505.378 322.908 492.513 353.967C479.648 385.026 460.791 413.248 437.019 437.019C413.248 460.791 385.026 479.648 353.967 492.513C322.908 505.378 289.618 512 256 512L256 256H512Z" fill="#FFD026"/>
<rect x="512" y="256" width="256" height="256" fill="#069550"/>
<rect x="512" y="384" width="256" height="128" fill="white"/>
<path d="M640 256C710.692 256 768 313.308 768 384H512C512 313.308 569.308 256 640 256Z" fill="white"/>
<path d="M-3.05176e-05 768C-3.05176e-05 734.382 6.6216 701.092 19.4868 670.033C32.352 638.974 51.2088 610.752 74.9806 586.981C98.7524 563.209 126.974 544.352 158.033 531.487C189.092 518.622 222.382 512 256 512L256 768H-3.05176e-05Z" fill="#069550"/>
<rect width="256" height="256" transform="matrix(1 0 0 -1 256 768)" fill="#069550"/>
<rect x="512" y="512" width="256" height="256" fill="white"/>
<rect width="256" height="256" transform="matrix(-1 0 0 1 256 768)" fill="#069550"/>
<rect width="256" height="256" transform="matrix(1 0 0 -1 256 1024)" fill="#069550"/>
<rect width="256" height="128" transform="matrix(1 0 0 -1 256 1024)" fill="#FFD026"/>
<path d="M384 768C313.308 768 256 825.308 256 896H512C512 825.308 454.692 768 384 768Z" fill="#FFD026"/>
<rect x="512" y="768" width="256" height="256" fill="#FFD026"/>
<rect x="512" y="768" width="256" height="128" fill="white"/>
<path d="M640 1024C710.692 1024 768 966.692 768 896H512C512 966.692 569.308 1024 640 1024Z" fill="white"/>
</svg>
