<svg width="170" height="171" viewBox="0 0 170 171" fill="none" xmlns="http://www.w3.org/2000/svg">
<g clip-path="url(#clip0_2255_69412)">
<path d="M3.86363 163.113C1.72981 163.113 0 164.842 0 166.976C0 169.11 1.72981 170.84 3.86363 170.84C5.99746 170.84 7.72726 169.11 7.72726 166.976C7.72726 164.842 5.99746 163.113 3.86363 163.113Z" fill="#E6F6EC"/>
<path d="M96.5921 163.113C94.4583 163.113 92.7285 164.842 92.7285 166.976C92.7285 169.11 94.4583 170.84 96.5921 170.84C98.726 170.84 100.456 169.11 100.456 166.976C100.456 164.842 98.726 163.113 96.5921 163.113Z" fill="#9BDBB3"/>
<path d="M50.2269 163.113C48.0931 163.113 46.3633 164.842 46.3633 166.976C46.3633 169.11 48.0931 170.84 50.2269 170.84C52.3607 170.84 54.0905 169.11 54.0905 166.976C54.0905 164.842 52.3607 163.113 50.2269 163.113Z" fill="#C3E9D0"/>
<path d="M142.955 163.113C140.822 163.113 139.092 164.842 139.092 166.976C139.092 169.11 140.822 170.84 142.955 170.84C145.089 170.84 146.819 169.11 146.819 166.976C146.819 164.842 145.089 163.113 142.955 163.113Z" fill="#70CD94"/>
<path d="M27.0472 163.113C24.9134 163.113 23.1836 164.842 23.1836 166.976C23.1836 169.11 24.9134 170.84 27.0472 170.84C29.1811 170.84 30.9109 169.11 30.9109 166.976C30.9109 164.842 29.1811 163.113 27.0472 163.113Z" fill="#E6F6EC"/>
<path d="M119.772 163.113C117.638 163.113 115.908 164.842 115.908 166.976C115.908 169.11 117.638 170.84 119.772 170.84C121.906 170.84 123.635 169.11 123.635 166.976C123.635 164.842 121.906 163.113 119.772 163.113Z" fill="#9BDBB3"/>
<path d="M73.4086 163.113C71.2747 163.113 69.5449 164.842 69.5449 166.976C69.5449 169.11 71.2747 170.84 73.4086 170.84C75.5424 170.84 77.2722 169.11 77.2722 166.976C77.2722 164.842 75.5424 163.113 73.4086 163.113Z" fill="#C3E9D0"/>
<path d="M166.135 163.113C164.001 163.113 162.271 164.842 162.271 166.976C162.271 169.11 164.001 170.84 166.135 170.84C168.269 170.84 169.999 169.11 169.999 166.976C169.999 164.842 168.269 163.113 166.135 163.113Z" fill="#70CD94"/>
<path d="M3.86363 93.5657C1.72981 93.5657 0 95.2955 0 97.4293C0 99.5632 1.72981 101.293 3.86363 101.293C5.99746 101.293 7.72727 99.5632 7.72727 97.4293C7.72727 95.2955 5.99746 93.5657 3.86363 93.5657Z" fill="#C3E9D0"/>
<path d="M96.5921 93.5657C94.4583 93.5657 92.7285 95.2955 92.7285 97.4293C92.7285 99.5632 94.4583 101.293 96.5921 101.293C98.726 101.293 100.456 99.5632 100.456 97.4293C100.456 95.2955 98.726 93.5657 96.5921 93.5657Z" fill="#9BDBB3"/>
<path d="M50.2269 93.5657C48.0931 93.5657 46.3633 95.2955 46.3633 97.4293C46.3633 99.5632 48.0931 101.293 50.2269 101.293C52.3607 101.293 54.0906 99.5632 54.0906 97.4293C54.0906 95.2955 52.3607 93.5657 50.2269 93.5657Z" fill="#C3E9D0"/>
<path d="M142.955 93.5657C140.822 93.5657 139.092 95.2955 139.092 97.4293C139.092 99.5632 140.822 101.293 142.955 101.293C145.089 101.293 146.819 99.5632 146.819 97.4293C146.819 95.2955 145.089 93.5657 142.955 93.5657Z" fill="#70CD94"/>
<path d="M27.0472 93.5657C24.9134 93.5657 23.1836 95.2955 23.1836 97.4293C23.1836 99.5632 24.9134 101.293 27.0472 101.293C29.1811 101.293 30.9109 99.5632 30.9109 97.4293C30.9109 95.2955 29.1811 93.5657 27.0472 93.5657Z" fill="#C3E9D0"/>
<path d="M119.772 93.5657C117.638 93.5657 115.908 95.2955 115.908 97.4293C115.908 99.5632 117.638 101.293 119.772 101.293C121.906 101.293 123.635 99.5632 123.635 97.4293C123.635 95.2955 121.906 93.5657 119.772 93.5657Z" fill="#9BDBB3"/>
<path d="M73.4086 93.5657C71.2747 93.5657 69.5449 95.2955 69.5449 97.4293C69.5449 99.5632 71.2747 101.293 73.4086 101.293C75.5424 101.293 77.2722 99.5632 77.2722 97.4293C77.2722 95.2955 75.5424 93.5657 73.4086 93.5657Z" fill="#C3E9D0"/>
<path d="M166.135 93.5657C164.001 93.5657 162.271 95.2955 162.271 97.4293C162.271 99.5632 164.001 101.293 166.135 101.293C168.269 101.293 169.999 99.5632 169.999 97.4293C169.999 95.2955 168.269 93.5657 166.135 93.5657Z" fill="#70CD94"/>
<path d="M3.86363 139.931C1.72981 139.931 0 141.661 0 143.795C0 145.928 1.72981 147.658 3.86363 147.658C5.99746 147.658 7.72726 145.928 7.72726 143.795C7.72726 141.661 5.99746 139.931 3.86363 139.931Z" fill="#E6F6EC"/>
<path d="M96.5921 139.931C94.4583 139.931 92.7285 141.661 92.7285 143.795C92.7285 145.928 94.4583 147.658 96.5921 147.658C98.726 147.658 100.456 145.928 100.456 143.795C100.456 141.661 98.726 139.931 96.5921 139.931Z" fill="#9BDBB3"/>
<path d="M50.2269 139.931C48.0931 139.931 46.3633 141.661 46.3633 143.795C46.3633 145.928 48.0931 147.658 50.2269 147.658C52.3607 147.658 54.0905 145.928 54.0905 143.795C54.0905 141.661 52.3607 139.931 50.2269 139.931Z" fill="#C3E9D0"/>
<path d="M142.955 139.931C140.822 139.931 139.092 141.661 139.092 143.795C139.092 145.928 140.822 147.658 142.955 147.658C145.089 147.658 146.819 145.928 146.819 143.795C146.819 141.661 145.089 139.931 142.955 139.931Z" fill="#70CD94"/>
<path d="M27.0472 139.931C24.9134 139.931 23.1836 141.661 23.1836 143.795C23.1836 145.928 24.9134 147.658 27.0472 147.658C29.1811 147.658 30.9109 145.928 30.9109 143.795C30.9109 141.661 29.1811 139.931 27.0472 139.931Z" fill="#E6F6EC"/>
<path d="M119.772 139.931C117.638 139.931 115.908 141.661 115.908 143.795C115.908 145.928 117.638 147.658 119.772 147.658C121.906 147.658 123.635 145.928 123.635 143.795C123.635 141.661 121.906 139.931 119.772 139.931Z" fill="#9BDBB3"/>
<path d="M73.4086 139.931C71.2747 139.931 69.5449 141.661 69.5449 143.795C69.5449 145.928 71.2747 147.658 73.4086 147.658C75.5424 147.658 77.2722 145.928 77.2722 143.795C77.2722 141.661 75.5424 139.931 73.4086 139.931Z" fill="#C3E9D0"/>
<path d="M166.135 139.931C164.001 139.931 162.271 141.661 162.271 143.795C162.271 145.928 164.001 147.658 166.135 147.658C168.269 147.658 169.999 145.928 169.999 143.795C169.999 141.661 168.269 139.931 166.135 139.931Z" fill="#70CD94"/>
<path d="M3.86364 70.3841C1.72981 70.3841 0 72.1139 0 74.2477C0 76.3815 1.72981 78.1113 3.86364 78.1113C5.99747 78.1113 7.72727 76.3815 7.72727 74.2477C7.72727 72.1139 5.99747 70.3841 3.86364 70.3841Z" fill="#9BDBB3"/>
<path d="M96.5922 70.3841C94.4583 70.3841 92.7285 72.1139 92.7285 74.2477C92.7285 76.3815 94.4583 78.1113 96.5922 78.1113C98.726 78.1113 100.456 76.3815 100.456 74.2477C100.456 72.1139 98.726 70.3841 96.5922 70.3841Z" fill="#9BDBB3"/>
<path d="M50.2269 70.3841C48.0931 70.3841 46.3633 72.1139 46.3633 74.2477C46.3633 76.3815 48.0931 78.1113 50.2269 78.1113C52.3607 78.1113 54.0906 76.3815 54.0906 74.2477C54.0906 72.1139 52.3607 70.3841 50.2269 70.3841Z" fill="#9BDBB3"/>
<path d="M142.955 70.386C140.822 70.386 139.092 72.1158 139.092 74.2496C139.092 76.3835 140.822 78.1133 142.955 78.1133C145.089 78.1133 146.819 76.3835 146.819 74.2496C146.819 72.1158 145.089 70.386 142.955 70.386Z" fill="#70CD94"/>
<path d="M27.0472 70.3841C24.9134 70.3841 23.1836 72.1139 23.1836 74.2477C23.1836 76.3815 24.9134 78.1113 27.0472 78.1113C29.1811 78.1113 30.9109 76.3815 30.9109 74.2477C30.9109 72.1139 29.1811 70.3841 27.0472 70.3841Z" fill="#9BDBB3"/>
<path d="M119.772 70.386C117.638 70.386 115.908 72.1158 115.908 74.2496C115.908 76.3835 117.638 78.1133 119.772 78.1133C121.906 78.1133 123.635 76.3835 123.635 74.2496C123.635 72.1158 121.906 70.386 119.772 70.386Z" fill="#9BDBB3"/>
<path d="M73.4086 70.386C71.2747 70.386 69.5449 72.1158 69.5449 74.2496C69.5449 76.3835 71.2747 78.1133 73.4086 78.1133C75.5424 78.1133 77.2722 76.3835 77.2722 74.2496C77.2722 72.1158 75.5424 70.386 73.4086 70.386Z" fill="#9BDBB3"/>
<path d="M166.135 70.386C164.001 70.386 162.271 72.1158 162.271 74.2496C162.271 76.3835 164.001 78.1133 166.135 78.1133C168.269 78.1133 169.999 76.3835 169.999 74.2496C169.999 72.1158 168.269 70.386 166.135 70.386Z" fill="#70CD94"/>
<path d="M3.86364 24.0208C1.72981 24.0208 0 25.7506 0 27.8844C0 30.0182 1.72981 31.748 3.86364 31.748C5.99746 31.748 7.72727 30.0182 7.72727 27.8844C7.72727 25.7506 5.99746 24.0208 3.86364 24.0208Z" fill="#70CD94"/>
<path d="M96.5922 24.0208C94.4583 24.0208 92.7285 25.7506 92.7285 27.8844C92.7285 30.0182 94.4583 31.748 96.5922 31.748C98.726 31.748 100.456 30.0182 100.456 27.8844C100.456 25.7506 98.726 24.0208 96.5922 24.0208Z" fill="#70CD94"/>
<path d="M50.2269 24.0208C48.0931 24.0208 46.3633 25.7506 46.3633 27.8844C46.3633 30.0182 48.0931 31.748 50.2269 31.748C52.3607 31.748 54.0905 30.0182 54.0905 27.8844C54.0905 25.7506 52.3607 24.0208 50.2269 24.0208Z" fill="#70CD94"/>
<path d="M142.955 24.0208C140.822 24.0208 139.092 25.7506 139.092 27.8844C139.092 30.0182 140.822 31.748 142.955 31.748C145.089 31.748 146.819 30.0182 146.819 27.8844C146.819 25.7506 145.089 24.0208 142.955 24.0208Z" fill="#70CD94"/>
<path d="M27.0472 24.0208C24.9134 24.0208 23.1836 25.7506 23.1836 27.8844C23.1836 30.0182 24.9134 31.748 27.0472 31.748C29.1811 31.748 30.9109 30.0182 30.9109 27.8844C30.9109 25.7506 29.1811 24.0208 27.0472 24.0208Z" fill="#70CD94"/>
<path d="M119.772 24.0208C117.638 24.0208 115.908 25.7506 115.908 27.8844C115.908 30.0182 117.638 31.748 119.772 31.748C121.906 31.748 123.635 30.0182 123.635 27.8844C123.635 25.7506 121.906 24.0208 119.772 24.0208Z" fill="#70CD94"/>
<path d="M73.4086 24.0208C71.2747 24.0208 69.5449 25.7506 69.5449 27.8844C69.5449 30.0182 71.2747 31.748 73.4086 31.748C75.5424 31.748 77.2722 30.0182 77.2722 27.8844C77.2722 25.7506 75.5424 24.0208 73.4086 24.0208Z" fill="#70CD94"/>
<path d="M166.135 24.0208C164.001 24.0208 162.271 25.7506 162.271 27.8844C162.271 30.0182 164.001 31.748 166.135 31.748C168.269 31.748 169.999 30.0182 169.999 27.8844C169.999 25.7506 168.269 24.0208 166.135 24.0208Z" fill="#70CD94"/>
<path d="M3.86363 116.749C1.72981 116.749 0 118.479 0 120.613C0 122.747 1.72981 124.477 3.86363 124.477C5.99746 124.477 7.72728 122.747 7.72728 120.613C7.72728 118.479 5.99746 116.749 3.86363 116.749Z" fill="#C3E9D0"/>
<path d="M96.5921 116.749C94.4583 116.749 92.7285 118.479 92.7285 120.613C92.7285 122.747 94.4583 124.477 96.5921 124.477C98.726 124.477 100.456 122.747 100.456 120.613C100.456 118.479 98.726 116.749 96.5921 116.749Z" fill="#9BDBB3"/>
<path d="M50.2269 116.749C48.0931 116.749 46.3633 118.479 46.3633 120.613C46.3633 122.747 48.0931 124.477 50.2269 124.477C52.3607 124.477 54.0906 122.747 54.0906 120.613C54.0906 118.479 52.3607 116.749 50.2269 116.749Z" fill="#C3E9D0"/>
<path d="M142.955 116.749C140.822 116.749 139.092 118.479 139.092 120.613C139.092 122.747 140.822 124.477 142.955 124.477C145.089 124.477 146.819 122.747 146.819 120.613C146.819 118.479 145.089 116.749 142.955 116.749Z" fill="#70CD94"/>
<path d="M27.0472 116.749C24.9134 116.749 23.1836 118.479 23.1836 120.613C23.1836 122.747 24.9134 124.477 27.0472 124.477C29.1811 124.477 30.9109 122.747 30.9109 120.613C30.9109 118.479 29.1811 116.749 27.0472 116.749Z" fill="#C3E9D0"/>
<path d="M119.772 116.749C117.638 116.749 115.908 118.479 115.908 120.613C115.908 122.747 117.638 124.477 119.772 124.477C121.906 124.477 123.635 122.747 123.635 120.613C123.635 118.479 121.906 116.749 119.772 116.749Z" fill="#9BDBB3"/>
<path d="M73.4086 116.749C71.2747 116.749 69.5449 118.479 69.5449 120.613C69.5449 122.747 71.2747 124.477 73.4086 124.477C75.5424 124.477 77.2722 122.747 77.2722 120.613C77.2722 118.479 75.5424 116.749 73.4086 116.749Z" fill="#C3E9D0"/>
<path d="M166.135 116.749C164.001 116.749 162.271 118.479 162.271 120.613C162.271 122.747 164.001 124.477 166.135 124.477C168.269 124.477 169.999 122.747 169.999 120.613C169.999 118.479 168.269 116.749 166.135 116.749Z" fill="#70CD94"/>
<path d="M3.86364 47.2024C1.72981 47.2024 0 48.9322 0 51.0661C0 53.1999 1.72981 54.9297 3.86364 54.9297C5.99746 54.9297 7.72727 53.1999 7.72727 51.0661C7.72727 48.9322 5.99746 47.2024 3.86364 47.2024Z" fill="#9BDBB3"/>
<path d="M96.5922 47.2024C94.4583 47.2024 92.7285 48.9322 92.7285 51.0661C92.7285 53.1999 94.4583 54.9297 96.5922 54.9297C98.726 54.9297 100.456 53.1999 100.456 51.0661C100.456 48.9322 98.726 47.2024 96.5922 47.2024Z" fill="#9BDBB3"/>
<path d="M50.2269 47.2024C48.0931 47.2024 46.3633 48.9322 46.3633 51.0661C46.3633 53.1999 48.0931 54.9297 50.2269 54.9297C52.3607 54.9297 54.0906 53.1999 54.0906 51.0661C54.0906 48.9322 52.3607 47.2024 50.2269 47.2024Z" fill="#9BDBB3"/>
<path d="M142.955 47.2024C140.822 47.2024 139.092 48.9322 139.092 51.0661C139.092 53.1999 140.822 54.9297 142.955 54.9297C145.089 54.9297 146.819 53.1999 146.819 51.0661C146.819 48.9322 145.089 47.2024 142.955 47.2024Z" fill="#70CD94"/>
<path d="M27.0472 47.2024C24.9134 47.2024 23.1836 48.9322 23.1836 51.0661C23.1836 53.1999 24.9134 54.9297 27.0472 54.9297C29.1811 54.9297 30.9109 53.1999 30.9109 51.0661C30.9109 48.9322 29.1811 47.2024 27.0472 47.2024Z" fill="#9BDBB3"/>
<path d="M119.772 47.2024C117.638 47.2024 115.908 48.9322 115.908 51.066C115.908 53.1999 117.638 54.9297 119.772 54.9297C121.906 54.9297 123.635 53.1999 123.635 51.066C123.635 48.9322 121.906 47.2024 119.772 47.2024Z" fill="#9BDBB3"/>
<path d="M73.4086 47.2024C71.2747 47.2024 69.5449 48.9322 69.5449 51.0661C69.5449 53.1999 71.2747 54.9297 73.4086 54.9297C75.5424 54.9297 77.2722 53.1999 77.2722 51.0661C77.2722 48.9322 75.5424 47.2024 73.4086 47.2024Z" fill="#9BDBB3"/>
<path d="M166.135 47.2024C164.001 47.2024 162.271 48.9322 162.271 51.0661C162.271 53.1999 164.001 54.9297 166.135 54.9297C168.269 54.9297 169.999 53.1999 169.999 51.0661C169.999 48.9322 168.269 47.2024 166.135 47.2024Z" fill="#70CD94"/>
<path d="M3.86364 0.839136C1.72981 0.839136 0 2.56894 0 4.70277C0 6.8366 1.72981 8.56641 3.86364 8.56641C5.99746 8.56641 7.72727 6.8366 7.72727 4.70277C7.72727 2.56894 5.99746 0.839136 3.86364 0.839136Z" fill="#70CD94"/>
<path d="M96.5922 0.839134C94.4583 0.839134 92.7285 2.56895 92.7285 4.70277C92.7285 6.8366 94.4583 8.56641 96.5922 8.56641C98.726 8.56641 100.456 6.8366 100.456 4.70277C100.456 2.56895 98.726 0.839134 96.5922 0.839134Z" fill="#70CD94"/>
<path d="M50.2269 0.839138C48.0931 0.839138 46.3633 2.56894 46.3633 4.70277C46.3633 6.8366 48.0931 8.56641 50.2269 8.56641C52.3607 8.56641 54.0906 6.8366 54.0906 4.70277C54.0906 2.56894 52.3607 0.839138 50.2269 0.839138Z" fill="#70CD94"/>
<path d="M142.955 0.839127C140.822 0.839127 139.092 2.56895 139.092 4.70277C139.092 6.8366 140.822 8.56641 142.955 8.56641C145.089 8.56641 146.819 6.8366 146.819 4.70277C146.819 2.56895 145.089 0.839127 142.955 0.839127Z" fill="#70CD94"/>
<path d="M27.0472 0.839136C24.9134 0.839136 23.1836 2.56894 23.1836 4.70277C23.1836 6.8366 24.9134 8.56641 27.0472 8.56641C29.1811 8.56641 30.9109 6.8366 30.9109 4.70277C30.9109 2.56894 29.1811 0.839136 27.0472 0.839136Z" fill="#70CD94"/>
<path d="M119.772 0.839134C117.638 0.839134 115.908 2.56894 115.908 4.70277C115.908 6.83659 117.638 8.56641 119.772 8.56641C121.906 8.56641 123.635 6.83659 123.635 4.70277C123.635 2.56894 121.906 0.839134 119.772 0.839134Z" fill="#70CD94"/>
<path d="M73.4086 0.839134C71.2747 0.839134 69.5449 2.56895 69.5449 4.70277C69.5449 6.8366 71.2747 8.56641 73.4086 8.56641C75.5424 8.56641 77.2722 6.8366 77.2722 4.70277C77.2722 2.56895 75.5424 0.839134 73.4086 0.839134Z" fill="#70CD94"/>
<path d="M166.135 0.839127C164.001 0.839127 162.271 2.56895 162.271 4.70277C162.271 6.8366 164.001 8.56641 166.135 8.56641C168.269 8.56641 169.999 6.8366 169.999 4.70277C169.999 2.56895 168.269 0.839127 166.135 0.839127Z" fill="#70CD94"/>
</g>
<defs>
<clipPath id="clip0_2255_69412">
<rect width="170" height="171" fill="white"/>
</clipPath>
</defs>
</svg>
