<svg width="131" height="94" viewBox="0 0 131 94" fill="none" xmlns="http://www.w3.org/2000/svg">
<path d="M77.8335 90.9577C76.1668 89.291 75.3668 87.2771 75.4335 84.916C75.5057 82.5549 76.3752 80.541 78.0418 78.8743L101.583 55.3327H8.66683C6.30572 55.3327 4.32516 54.5327 2.72516 52.9327C1.13072 51.3382 0.333496 49.3605 0.333496 46.9993C0.333496 44.6382 1.13072 42.6577 2.72516 41.0577C4.32516 39.4632 6.30572 38.666 8.66683 38.666H101.583L77.8335 14.916C76.1668 13.2493 75.3335 11.2688 75.3335 8.97435C75.3335 6.68546 76.1668 4.70768 77.8335 3.04101C79.5002 1.37435 81.4807 0.541016 83.7752 0.541016C86.064 0.541016 88.0418 1.37435 89.7085 3.04101L127.833 41.166C128.667 41.9993 129.258 42.9021 129.608 43.8743C129.953 44.8466 130.125 45.8882 130.125 46.9993C130.125 48.1105 129.953 49.1521 129.608 50.1243C129.258 51.0966 128.667 51.9993 127.833 52.8327L89.5002 91.166C87.9724 92.6938 86.064 93.4577 83.7752 93.4577C81.4807 93.4577 79.5002 92.6243 77.8335 90.9577Z" fill="white"/>
</svg>
