<svg width="30" height="50" viewBox="0 0 30 50" fill="none" xmlns="http://www.w3.org/2000/svg">
<g clip-path="url(#clip0_2230_69271)">
<path d="M27.9597 2.96071C27.5743 2.57444 27.1164 2.26799 26.6123 2.0589C26.1083 1.84981 25.5679 1.74219 25.0222 1.74219C24.4765 1.74219 23.9362 1.84981 23.4321 2.0589C22.9281 2.26799 22.4702 2.57444 22.0847 2.96071L2.95973 22.0857C2.57346 22.4712 2.26702 22.929 2.05793 23.4331C1.84884 23.9372 1.74121 24.4775 1.74121 25.0232C1.74121 25.5689 1.84884 26.1092 2.05793 26.6133C2.26702 27.1174 2.57346 27.5752 2.95973 27.9607L22.0847 47.0857C22.4705 47.4715 22.9284 47.7775 23.4325 47.9862C23.9365 48.195 24.4767 48.3025 25.0222 48.3025C25.5678 48.3025 26.108 48.195 26.612 47.9862C27.116 47.7775 27.574 47.4715 27.9597 47.0857C28.3455 46.6999 28.6515 46.242 28.8603 45.738C29.069 45.234 29.1765 44.6937 29.1765 44.1482C29.1765 43.6027 29.069 43.0625 28.8603 42.5584C28.6515 42.0544 28.3455 41.5965 27.9597 41.2107L11.7931 25.0024L27.9597 8.8357C29.5847 7.2107 29.5431 4.54404 27.9597 2.96071Z" fill="#212121"/>
</g>
<defs>
<clipPath id="clip0_2230_69271">
<rect width="29.1667" height="50" fill="white"/>
</clipPath>
</defs>
</svg>
