<svg width="48" height="45" viewBox="0 0 48 45" fill="none" xmlns="http://www.w3.org/2000/svg">
<path d="M42.7273 45L33.1818 35.5682C31.8561 35.9848 30.5212 36.2977 29.1773 36.5068C27.8318 36.7144 26.4394 36.8182 25 36.8182C19.2803 36.8182 14.1856 35.2371 9.71591 32.075C5.24621 28.9114 2.00758 24.8106 0 19.7727C0.795455 17.7652 1.79924 15.8992 3.01136 14.175C4.22348 12.4523 5.60606 10.9091 7.15909 9.54545L0.909091 3.18182L4.09091 0L45.9091 41.8182L42.7273 45ZM25 30C25.4167 30 25.8045 29.9811 26.1636 29.9432C26.5242 29.9053 26.9129 29.8295 27.3295 29.7159L15.0568 17.4432C14.9432 17.8598 14.8674 18.2485 14.8295 18.6091C14.7917 18.9682 14.7727 19.3561 14.7727 19.7727C14.7727 22.6136 15.7667 25.0288 17.7545 27.0182C19.7439 29.0061 22.1591 30 25 30ZM41.5909 31.0227L34.375 23.8636C34.6402 23.2197 34.8485 22.5667 35 21.9045C35.1515 21.2409 35.2273 20.5303 35.2273 19.7727C35.2273 16.9318 34.2333 14.5167 32.2455 12.5273C30.2561 10.5394 27.8409 9.54545 25 9.54545C24.2424 9.54545 23.5318 9.62121 22.8682 9.77273C22.2061 9.92424 21.553 10.1515 20.9091 10.4545L15.1136 4.65909C16.6667 4.01515 18.2576 3.53182 19.8864 3.20909C21.5152 2.88788 23.2197 2.72727 25 2.72727C30.7197 2.72727 35.8144 4.30833 40.2841 7.47045C44.7538 10.6341 47.9924 14.7348 50 19.7727C49.1288 22.0076 47.9833 24.0818 46.5636 25.9955C45.1424 27.9076 43.4848 29.5833 41.5909 31.0227ZM31.0795 20.5682L24.2614 13.75C25.322 13.5606 26.2977 13.6455 27.1886 14.0045C28.078 14.3652 28.8447 14.8864 29.4886 15.5682C30.1326 16.25 30.597 17.0364 30.8818 17.9273C31.1652 18.8167 31.2311 19.697 31.0795 20.5682Z" fill="#212121"/>
</svg>
