<svg width="50" height="50" viewBox="0 0 50 50" fill="none" xmlns="http://www.w3.org/2000/svg">
<path d="M25 25C23.3557 25 21.7114 24.7083 20.4297 24.1248L2.36328 15.8862C1.53686 15.5103 -0.390625 14.4104 -0.390625 12.334C-0.390625 10.2576 1.53687 9.16016 2.36572 8.7793L20.5884 0.469971C23.0994 -0.67749 26.8884 -0.67749 29.4006 0.469971L47.6343 8.7793C48.4631 9.15649 50.3906 10.2563 50.3906 12.334C50.3906 14.4116 48.4631 15.5078 47.6343 15.8875L29.5679 24.1248C28.2886 24.7083 26.6443 25 25 25Z" fill="#16A75C"/>
<path d="M47.627 21.4368L45.7849 20.6055L41.0522 22.771L29.5776 28.02C28.2959 28.606 26.6479 28.8977 25.0073 28.8977C23.3667 28.8977 21.72 28.606 20.4395 28.02L8.9563 22.771L4.22241 20.6055L2.3645 21.4404C1.53687 21.8176 -0.390625 22.9248 -0.390625 25C-0.390625 27.0752 1.53686 28.1836 2.36328 28.5608L20.4297 36.8164C21.7041 37.4023 23.3508 37.6953 25 37.6953C26.6492 37.6953 28.2886 37.4023 29.5703 36.8176L47.6208 28.5645C48.4521 28.1873 50.3906 27.0862 50.3906 25C50.3906 22.9138 48.4656 21.8176 47.627 21.4368Z" fill="#16A75C"/>
<path d="M47.627 34.1309L45.7849 33.3008L41.0522 35.4651L29.5776 40.708C28.2959 41.2915 26.6479 41.5845 25.0073 41.5845C23.3667 41.5845 21.72 41.2927 20.4395 40.708L8.9563 35.459L4.22241 33.3008L2.3645 34.1357C1.53687 34.5129 -0.390625 35.6201 -0.390625 37.6953C-0.390625 39.7705 1.53686 40.8777 2.36328 41.2537L20.4297 49.5044C21.7041 50.0879 23.3569 50.3906 25 50.3906C26.6431 50.3906 28.2813 50.0879 29.563 49.5032L47.6196 41.2549C48.4521 40.8789 50.3906 39.7778 50.3906 37.6953C50.3906 35.6128 48.4656 34.5129 47.627 34.1309Z" fill="#16A75C"/>
</svg>
