<svg width="40" height="50" viewBox="0 0 40 50" fill="none" xmlns="http://www.w3.org/2000/svg">
<path d="M19.6436 0C14.4356 0.00590812 9.44262 2.0774 5.76001 5.76001C2.0774 9.44262 0.00590812 14.4356 0 19.6436C0 36.4523 17.8578 49.1537 18.6168 49.6894C18.921 49.8919 19.2782 50 19.6436 50C20.009 50 20.3663 49.8919 20.6704 49.6894C21.4294 49.1537 39.2872 36.4523 39.2872 19.6436C39.2813 14.4356 37.2098 9.44262 33.5272 5.76001C29.8446 2.0774 24.8516 0.00590812 19.6436 0ZM19.6436 12.5005C21.0564 12.5005 22.4375 12.9194 23.6121 13.7043C24.7868 14.4892 25.7024 15.6048 26.243 16.9101C26.7837 18.2153 26.9251 19.6515 26.6495 21.0372C26.3739 22.4228 25.6936 23.6956 24.6946 24.6946C23.6956 25.6936 22.4228 26.3739 21.0372 26.6495C19.6515 26.9251 18.2153 26.7837 16.9101 26.243C15.6048 25.7024 14.4892 24.7868 13.7043 23.6121C12.9194 22.4374 12.5005 21.0564 12.5005 19.6436C12.5005 17.7491 13.2531 15.9323 14.5927 14.5927C15.9323 13.2531 17.7491 12.5005 19.6436 12.5005Z" fill="#16A75C"/>
</svg>
