<svg width="42" height="38" viewBox="0 0 42 38" fill="none" xmlns="http://www.w3.org/2000/svg">
<path d="M17.4587 10.0417C17.2657 10.2323 17.1124 10.4594 17.0078 10.7098C16.9033 10.9601 16.8494 11.2287 16.8494 11.5C16.8494 11.7713 16.9033 12.0399 17.0078 12.2902C17.1124 12.5406 17.2657 12.7677 17.4587 12.9583L21.417 16.9167H2.25033C1.10449 16.9167 0.166992 17.8542 0.166992 19C0.166992 20.1458 1.10449 21.0833 2.25033 21.0833H21.417L17.4587 25.0417C17.2657 25.2323 17.1124 25.4594 17.0078 25.7098C16.9033 25.9601 16.8494 26.2287 16.8494 26.5C16.8494 26.7713 16.9033 27.0399 17.0078 27.2902C17.1124 27.5406 17.2657 27.7677 17.4587 27.9583C18.2712 28.7708 19.5628 28.7708 20.3753 27.9583L27.8545 20.4792C28.0476 20.2864 28.2009 20.0575 28.3054 19.8055C28.4099 19.5534 28.4638 19.2833 28.4638 19.0104C28.4638 18.7376 28.4099 18.4674 28.3054 18.2154C28.2009 17.9633 28.0476 17.7344 27.8545 17.5417L20.3753 10.0417C20.1847 9.84867 19.9576 9.69543 19.7072 9.59085C19.4569 9.48627 19.1883 9.43242 18.917 9.43242C18.6457 9.43242 18.3771 9.48627 18.1268 9.59085C17.8764 9.69543 17.6493 9.84867 17.4587 10.0417ZM37.667 33.5833H23.0837C21.9378 33.5833 21.0003 34.5208 21.0003 35.6667C21.0003 36.8125 21.9378 37.75 23.0837 37.75H37.667C39.9587 37.75 41.8337 35.875 41.8337 33.5833V4.41667C41.8337 2.125 39.9587 0.25 37.667 0.25H23.0837C21.9378 0.25 21.0003 1.1875 21.0003 2.33333C21.0003 3.47917 21.9378 4.41667 23.0837 4.41667H37.667V33.5833Z" fill="white"/>
</svg>
