<svg width="56" height="50" viewBox="0 0 56 50" fill="none" xmlns="http://www.w3.org/2000/svg">
<path d="M23.0556 13.0556C22.7982 13.3098 22.5939 13.6126 22.4545 13.9463C22.315 14.2801 22.2432 14.6383 22.2432 15C22.2432 15.3617 22.315 15.7199 22.4545 16.0537C22.5939 16.3874 22.7982 16.6902 23.0556 16.9444L28.3333 22.2222H2.77778C1.25 22.2222 0 23.4722 0 25C0 26.5278 1.25 27.7778 2.77778 27.7778H28.3333L23.0556 33.0556C22.7982 33.3098 22.5939 33.6126 22.4545 33.9463C22.315 34.2801 22.2432 34.6383 22.2432 35C22.2432 35.3617 22.315 35.7199 22.4545 36.0537C22.5939 36.3874 22.7982 36.6902 23.0556 36.9444C24.1389 38.0278 25.8611 38.0278 26.9444 36.9444L36.9167 26.9722C37.1742 26.7152 37.3785 26.41 37.5179 26.074C37.6573 25.7379 37.729 25.3777 37.729 25.0139C37.729 24.6501 37.6573 24.2899 37.5179 23.9538C37.3785 23.6178 37.1742 23.3125 36.9167 23.0556L26.9444 13.0556C26.6902 12.7982 26.3874 12.5939 26.0537 12.4545C25.7199 12.315 25.3617 12.2432 25 12.2432C24.6383 12.2432 24.2801 12.315 23.9463 12.4545C23.6126 12.5939 23.3098 12.7982 23.0556 13.0556ZM50 44.4444H30.5556C29.0278 44.4444 27.7778 45.6944 27.7778 47.2222C27.7778 48.75 29.0278 50 30.5556 50H50C53.0556 50 55.5556 47.5 55.5556 44.4444V5.55556C55.5556 2.5 53.0556 0 50 0H30.5556C29.0278 0 27.7778 1.25 27.7778 2.77778C27.7778 4.30556 29.0278 5.55556 30.5556 5.55556H50V44.4444Z" fill="#16A75C"/>
</svg>
