<svg width="68" height="54" viewBox="0 0 68 54" fill="none" xmlns="http://www.w3.org/2000/svg">
<path d="M60.667 0.333984H7.33366C3.66699 0.333984 0.700325 3.33398 0.700325 7.00065L0.666992 47.0006C0.666992 50.6673 3.66699 53.6673 7.33366 53.6673H60.667C64.3337 53.6673 67.3337 50.6673 67.3337 47.0006V7.00065C67.3337 3.33398 64.3337 0.333984 60.667 0.333984ZM59.3337 14.5006L35.767 29.234C34.7003 29.9006 33.3003 29.9006 32.2337 29.234L8.66699 14.5006C8.33275 14.313 8.04006 14.0595 7.80662 13.7555C7.57319 13.4515 7.40387 13.1032 7.30891 12.7319C7.21395 12.3605 7.19533 11.9738 7.25418 11.595C7.31303 11.2162 7.44811 10.8534 7.65126 10.5283C7.85442 10.2033 8.12141 9.92284 8.43608 9.70397C8.75075 9.4851 9.10656 9.33235 9.48198 9.25498C9.85739 9.1776 10.2446 9.17721 10.6202 9.25381C10.9957 9.33042 11.3519 9.48243 11.667 9.70065L34.0003 23.6673L56.3337 9.70065C56.6488 9.48243 57.0049 9.33042 57.3805 9.25381C57.756 9.17721 58.1433 9.1776 58.5187 9.25498C58.8941 9.33235 59.2499 9.4851 59.5646 9.70397C59.8792 9.92284 60.1462 10.2033 60.3494 10.5283C60.5525 10.8534 60.6876 11.2162 60.7465 11.595C60.8053 11.9738 60.7867 12.3605 60.6917 12.7319C60.5968 13.1032 60.4275 13.4515 60.194 13.7555C59.9606 14.0595 59.6679 14.313 59.3337 14.5006Z" fill="#16A75C"/>
</svg>
