<svg width="81" height="50" viewBox="0 0 81 50" fill="none" xmlns="http://www.w3.org/2000/svg">
<g clip-path="url(#clip0_2108_69276)">
<path d="M40.3226 0.740234C43.4417 0.740234 46.4331 1.97931 48.6387 4.18488C50.8443 6.39045 52.0833 9.38184 52.0833 12.501C52.0833 15.6201 50.8443 18.6115 48.6387 20.8171C46.4331 23.0227 43.4417 24.2617 40.3226 24.2617C37.2034 24.2617 34.212 23.0227 32.0065 20.8171C29.8009 18.6115 28.5618 15.6201 28.5618 12.501C28.5618 9.38184 29.8009 6.39045 32.0065 4.18488C34.212 1.97931 37.2034 0.740234 40.3226 0.740234ZM16.8011 9.14077C18.6828 9.14077 20.4301 9.6448 21.9422 10.5521C21.4382 15.3572 22.8495 20.1287 25.7392 23.8585C24.0591 27.0843 20.6989 29.3021 16.8011 29.3021C14.1275 29.3021 11.5635 28.24 9.67298 26.3495C7.7825 24.459 6.72043 21.895 6.72043 19.2214C6.72043 16.5479 7.7825 13.9838 9.67298 12.0933C11.5635 10.2028 14.1275 9.14077 16.8011 9.14077ZM63.8441 9.14077C66.5176 9.14077 69.0817 10.2028 70.9722 12.0933C72.8627 13.9838 73.9247 16.5479 73.9247 19.2214C73.9247 21.895 72.8627 24.459 70.9722 26.3495C69.0817 28.24 66.5176 29.3021 63.8441 29.3021C59.9462 29.3021 56.586 27.0843 54.9059 23.8585C57.8356 20.0763 59.1955 15.3108 58.703 10.5521C60.2151 9.6448 61.9624 9.14077 63.8441 9.14077ZM18.4812 43.583C18.4812 36.6273 28.2594 30.9822 40.3226 30.9822C52.3858 30.9822 62.164 36.6273 62.164 43.583V49.4634H18.4812V43.583ZM0 49.4634V44.423C0 39.7523 6.35081 35.8209 14.953 34.6784C12.9704 36.9634 11.7608 40.122 11.7608 43.583V49.4634H0ZM80.6452 49.4634H68.8844V43.583C68.8844 40.122 67.6747 36.9634 65.6922 34.6784C74.2944 35.8209 80.6452 39.7523 80.6452 44.423V49.4634Z" fill="#16A75C"/>
</g>
<defs>
<clipPath id="clip0_2108_69276">
<rect width="80.6452" height="50" fill="white"/>
</clipPath>
</defs>
</svg>
