<svg width="50" height="50" viewBox="0 0 50 50" fill="none" xmlns="http://www.w3.org/2000/svg">
<path d="M49.9751 37.7566C49.5322 41.1377 47.8766 44.2429 45.316 46.4949C42.7554 48.7469 39.4642 49.9925 36.0542 50C16.1743 50 0 33.8257 0 13.9458C0.00751719 10.5358 1.25307 7.24458 3.50508 4.68401C5.75708 2.12345 8.86231 0.467788 12.2434 0.0248618C13.1053 -0.0707045 13.9753 0.110763 14.7271 0.542949C15.4789 0.975135 16.0735 1.63557 16.4247 2.42848L21.4573 14.1711C21.7183 14.7806 21.823 15.4457 21.7618 16.106C21.7005 16.7662 21.4754 17.4007 21.1067 17.9518L16.9505 24.3114C18.8325 28.1308 21.9336 31.2143 25.7637 33.0745L32.0482 28.8933C32.5987 28.5221 33.2348 28.2975 33.8963 28.2405C34.5579 28.1836 35.223 28.2962 35.8289 28.5678L47.5715 33.5753C48.3644 33.9265 49.0249 34.5211 49.457 35.2729C49.8892 36.0247 50.0707 36.8947 49.9751 37.7566Z" fill="#16A75C"/>
</svg>
