<svg width="50" height="36" viewBox="0 0 50 36" fill="none" xmlns="http://www.w3.org/2000/svg">
<path d="M25 28.1985C27.8409 28.1985 30.2561 27.2046 32.2455 25.2167C34.2333 23.2273 35.2273 20.8121 35.2273 17.9712C35.2273 15.1303 34.2333 12.7152 32.2455 10.7258C30.2561 8.7379 27.8409 7.74396 25 7.74396C22.1591 7.74396 19.7439 8.7379 17.7545 10.7258C15.7667 12.7152 14.7727 15.1303 14.7727 17.9712C14.7727 20.8121 15.7667 23.2273 17.7545 25.2167C19.7439 27.2046 22.1591 28.1985 25 28.1985ZM25 24.1076C23.2955 24.1076 21.847 23.5106 20.6545 22.3167C19.4606 21.1243 18.8636 19.6758 18.8636 17.9712C18.8636 16.2667 19.4606 14.8174 20.6545 13.6235C21.847 12.4311 23.2955 11.8349 25 11.8349C26.7045 11.8349 28.1538 12.4311 29.3477 13.6235C30.5402 14.8174 31.1364 16.2667 31.1364 17.9712C31.1364 19.6758 30.5402 21.1243 29.3477 22.3167C28.1538 23.5106 26.7045 24.1076 25 24.1076ZM25 35.0167C19.4697 35.0167 14.4318 33.4728 9.88636 30.3849C5.34091 27.2985 2.04545 23.1606 0 17.9712C2.04545 12.7818 5.34091 8.64321 9.88636 5.55533C14.4318 2.46896 19.4697 0.925781 25 0.925781C30.5303 0.925781 35.5682 2.46896 40.1136 5.55533C44.6591 8.64321 47.9545 12.7818 50 17.9712C47.9545 23.1606 44.6591 27.2985 40.1136 30.3849C35.5682 33.4728 30.5303 35.0167 25 35.0167Z" fill="#212121"/>
</svg>
