<svg width="57" height="50" viewBox="0 0 57 50" fill="none" xmlns="http://www.w3.org/2000/svg">
<path d="M2.56923 50C1.50441 50 0.717376 49.537 0.208116 48.6111C-0.301143 47.6852 -0.301143 46.7593 0.208116 45.8333L25.9026 1.38889C26.4118 0.462963 27.222 0 28.3331 0C29.4442 0 30.2544 0.462963 30.7637 1.38889L56.4581 45.8333C56.9674 46.7593 56.9674 47.6852 56.4581 48.6111C55.9489 49.537 55.1618 50 54.097 50H2.56923ZM28.3331 19.4444C27.5461 19.4444 26.8868 19.7102 26.3553 20.2417C25.822 20.775 25.5553 21.4352 25.5553 22.2222V30.5556C25.5553 31.3426 25.822 32.0019 26.3553 32.5333C26.8868 33.0667 27.5461 33.3333 28.3331 33.3333C29.1202 33.3333 29.7803 33.0667 30.3137 32.5333C30.8452 32.0019 31.1109 31.3426 31.1109 30.5556V22.2222C31.1109 21.4352 30.8452 20.775 30.3137 20.2417C29.7803 19.7102 29.1202 19.4444 28.3331 19.4444ZM28.3331 41.6667C29.1202 41.6667 29.7803 41.4 30.3137 40.8667C30.8452 40.3352 31.1109 39.6759 31.1109 38.8889C31.1109 38.1019 30.8452 37.4426 30.3137 36.9111C29.7803 36.3778 29.1202 36.1111 28.3331 36.1111C27.5461 36.1111 26.8868 36.3778 26.3553 36.9111C25.822 37.4426 25.5553 38.1019 25.5553 38.8889C25.5553 39.6759 25.822 40.3352 26.3553 40.8667C26.8868 41.4 27.5461 41.6667 28.3331 41.6667Z" fill="#C62828"/>
</svg>
