<svg width="941" height="1300" viewBox="0 0 941 1300" fill="none" xmlns="http://www.w3.org/2000/svg">
<g clip-path="url(#clip0_2252_69271)">
<path d="M312.445 672.317H521.673V881.545H312.445V672.317Z" fill="#4DC27E"/>
<path d="M521.674 463.09H730.901V672.318H521.674V463.09Z" fill="#4DC27E"/>
<path d="M730.9 463.09C846.453 463.09 940.128 556.764 940.128 672.318H730.9V463.09Z" fill="#FFDA4F"/>
<path d="M730.901 881.545C615.348 881.545 521.674 787.871 521.674 672.317H730.901V881.545Z" fill="#64B5F6"/>
<path d="M312.445 463.09H521.673V672.318H312.445V463.09Z" fill="#1FB767"/>
<path d="M312.445 881.545H521.673V1090.77H312.445V881.545Z" fill="#1FB767"/>
<path d="M103.219 463.09H312.446V672.318H103.219V463.09Z" fill="#4DC27E"/>
<path d="M521.674 1090.77H730.901V1300H521.674V1090.77Z" fill="#4DC27E"/>
<path d="M730.9 881.545H940.128V1090.77H730.9V881.545Z" fill="#4DC27E"/>
<path d="M730.9 672.317H940.128V881.545H730.9V672.317Z" fill="#1FB767"/>
<path d="M730.9 1090.77H940.128C940.128 1206.33 846.453 1300 730.9 1300V1090.77Z" fill="#1FB767"/>
<path d="M376.609 0H368.24V39.0558H376.609V0Z" fill="#FFDA4F"/>
<path d="M619.313 348.712H111.588V390.557H619.313V348.712Z" fill="#FFDA4F"/>
<path d="M111.588 390.558V348.712H41.8457L111.588 390.558Z" fill="#FFDA4F"/>
<path d="M619.312 390.558V348.712H689.056L619.312 390.558Z" fill="#FFDA4F"/>
<path d="M535.622 295.708H195.279V337.553H535.622V295.708Z" fill="#FFDA4F"/>
<path d="M195.278 337.554V295.708H139.484L195.278 337.554Z" fill="#FFDA4F"/>
<path d="M535.621 337.554V295.708H605.364L535.621 337.554Z" fill="#FFDA4F"/>
<path d="M661.158 401.717H69.7422V443.562H661.158V401.717Z" fill="#FFDA4F"/>
<path d="M83.6907 443.562H69.7422V672.318H83.6907V443.562Z" fill="#FFDA4F"/>
<path d="M69.7425 443.562V401.717H0L69.7425 443.562Z" fill="#FFDA4F"/>
<path d="M661.158 443.562V401.717H730.9L661.158 443.562Z" fill="#FFDA4F"/>
<path d="M372.425 78.112C383.98 78.112 393.347 68.7446 393.347 57.1893C393.347 45.634 383.98 36.2666 372.425 36.2666C360.869 36.2666 351.502 45.634 351.502 57.1893C351.502 68.7446 360.869 78.112 372.425 78.112Z" fill="#FFDA4F"/>
<path d="M372.425 111.588C383.98 111.588 393.347 102.22 393.347 90.6649C393.347 79.1096 383.98 69.7422 372.425 69.7422C360.869 69.7422 351.502 79.1096 351.502 90.6649C351.502 102.22 360.869 111.588 372.425 111.588Z" fill="#FFDA4F"/>
<path d="M372.425 145.065C383.98 145.065 393.347 135.698 393.347 124.142C393.347 112.587 383.98 103.22 372.425 103.22C360.869 103.22 351.502 112.587 351.502 124.142C351.502 135.698 360.869 145.065 372.425 145.065Z" fill="#FFDA4F"/>
<path d="M372.425 178.541C383.98 178.541 393.347 169.173 393.347 157.618C393.347 146.063 383.98 136.695 372.425 136.695C360.869 136.695 351.502 146.063 351.502 157.618C351.502 169.173 360.869 178.541 372.425 178.541Z" fill="#FFDA4F"/>
<path d="M372.425 212.016C383.98 212.016 393.347 202.649 393.347 191.094C393.347 179.538 383.98 170.171 372.425 170.171C360.869 170.171 351.502 179.538 351.502 191.094C351.502 202.649 360.869 212.016 372.425 212.016Z" fill="#FFDA4F"/>
<path d="M372.425 245.494C383.98 245.494 393.347 236.126 393.347 224.571C393.347 213.016 383.98 203.648 372.425 203.648C360.869 203.648 351.502 213.016 351.502 224.571C351.502 236.126 360.869 245.494 372.425 245.494Z" fill="#FFDA4F"/>
<path d="M440.773 242.704H398.928V284.55H440.773V242.704Z" fill="#FFDA4F"/>
<path d="M398.928 242.704H345.924V284.55H398.928V242.704Z" fill="#FFDA4F"/>
<path d="M345.922 242.704H304.076V284.55H345.922V242.704Z" fill="#FFDA4F"/>
<path d="M440.773 242.704V284.549H468.67L440.773 242.704Z" fill="#FFDA4F"/>
<path d="M304.077 242.704V284.549H276.18L304.077 242.704Z" fill="#FFDA4F"/>
</g>
<defs>
<clipPath id="clip0_2252_69271">
<rect width="941" height="1300" fill="white"/>
</clipPath>
</defs>
</svg>
