<svg width="2276" height="540" viewBox="0 0 2276 540" fill="none" xmlns="http://www.w3.org/2000/svg">
<path d="M507.736 328.94V476H545.146V328.94H593.134V295.4H459.49V328.94H507.736ZM737.023 295.4H626.341V476H739.087V440.912H665.299V399.632H732.379V365.834H665.299V329.198H737.023V295.4ZM868.414 380.798L795.916 294.884H781.726V476H820.426V378.218L865.834 434.978H870.736L916.144 378.218V476H954.844V294.884H940.912L868.414 380.798ZM1111.19 446.072L1125.38 476H1165.37V470.84L1082.81 293.852H1065.01L981.936 470.84V476H1022.18L1036.12 446.072H1111.19ZM1073.78 353.966L1098.81 413.564H1048.76L1073.78 353.966ZM1333.38 476.516H1344.99V295.4H1306.29V397.826L1204.9 294.626H1192.77V476H1231.21V372.8L1333.38 476.516ZM1516.81 295.4H1445.86V328.682H1478.11V415.37C1478.11 434.204 1465.98 444.266 1447.66 444.266C1429.35 444.266 1416.19 434.72 1416.19 415.37V394.214H1380.33V416.144C1380.33 455.36 1410.25 478.58 1447.66 478.58C1485.07 478.58 1516.81 455.36 1516.81 416.144V295.4ZM1669.31 446.072L1683.5 476H1723.49V470.84L1640.93 293.852H1623.13L1540.05 470.84V476H1580.3L1594.23 446.072H1669.31ZM1631.9 353.966L1656.93 413.564H1606.87L1631.9 353.966ZM1884.53 349.064C1884.53 315.266 1860.8 295.658 1827.77 295.658H1751.15V476H1835C1871.12 476 1892.27 454.328 1892.27 422.594C1892.27 404.018 1883.24 389.312 1866.47 382.346C1877.82 375.38 1884.53 362.222 1884.53 349.064ZM1824.93 328.682C1838.35 328.682 1846.86 337.196 1846.61 350.354C1846.35 362.48 1838.09 369.704 1824.93 369.704H1789.59V328.682H1824.93ZM1830.61 401.18C1836.54 401.18 1841.7 401.696 1846.09 404.792C1851.51 408.662 1854.35 415.37 1854.09 422.594C1853.31 434.72 1845.57 442.46 1832.42 442.46H1789.59V401.18H1830.61ZM2036.52 446.072L2050.71 476H2090.7V470.84L2008.14 293.852H1990.33L1907.26 470.84V476H1947.51L1961.44 446.072H2036.52ZM1999.11 353.966L2024.13 413.564H1974.08L1999.11 353.966ZM2226.97 410.21C2247.61 400.148 2259.22 380.024 2259.22 357.062C2259.22 325.07 2236.78 295.142 2195.5 295.142C2169.7 294.884 2144.15 295.142 2118.35 295.142V475.742H2157.05V416.144H2189.3L2226.46 475.742H2267.74V470.324L2226.97 410.21ZM2156.54 384.41V328.94H2195.24C2211.75 328.94 2221.81 341.066 2221.81 356.288C2222.07 371.768 2211.49 384.41 2195.24 384.41H2156.54Z" fill="white"/>
<path d="M464.857 136.528V226H498.137C527.065 226 542.425 203.856 542.041 180.944C542.041 158.16 526.681 136.528 498.137 136.528H464.857ZM483.929 208.72V153.808H497.881C514.137 153.808 522.969 166.736 522.969 181.072C522.969 195.408 514.393 208.72 497.881 208.72H483.929ZM612.186 211.152L619.226 226H639.066V223.44L598.106 135.632H589.274L548.058 223.44V226H568.026L574.938 211.152H612.186ZM593.626 165.456L606.042 195.024H581.21L593.626 165.456ZM646.542 199.504C646.542 219.088 665.102 227.92 683.022 227.92C700.686 227.536 718.99 221.008 718.99 199.888C718.99 178.896 702.734 174.672 683.79 173.008C674.446 171.984 666.638 170.192 666.638 162.256C666.638 155.344 674.19 151.248 681.87 151.248C689.55 151.248 697.102 154.32 698.126 161.616H716.046C716.046 141.52 698.638 134.48 681.87 134.48C664.078 134.48 647.822 142.8 647.822 162.64C647.822 181.2 664.206 186.704 680.462 188.112C689.038 188.752 700.046 189.648 700.046 199.888C700.046 209.232 690.83 211.152 682.894 211.152C674.19 211.152 665.23 207.696 664.846 199.504H646.542ZM810.95 226V136.4H791.75V170.576H757.446V136.4H738.374V226H757.446V188.112H791.75V226H810.95ZM901.768 163.024C901.768 146.256 889.992 136.528 873.608 136.528H835.592V226H877.192C895.112 226 905.608 215.248 905.608 199.504C905.608 190.288 901.128 182.992 892.808 179.536C898.44 176.08 901.768 169.552 901.768 163.024ZM872.2 152.912C878.856 152.912 883.08 157.136 882.952 163.664C882.824 169.68 878.728 173.264 872.2 173.264H854.664V152.912H872.2ZM875.016 188.88C877.96 188.88 880.52 189.136 882.696 190.672C885.384 192.592 886.792 195.92 886.664 199.504C886.28 205.52 882.44 209.36 875.912 209.36H854.664V188.88H875.016ZM1011.83 181.2C1011.83 151.12 989.688 134.992 966.264 134.992C942.456 134.992 920.312 150.992 920.312 181.2C920.312 211.408 941.944 227.536 965.88 227.536C993.016 227.536 1011.83 208.464 1011.83 181.2ZM939.64 181.2C939.64 162.256 952.184 152.656 966.264 152.656C980.216 152.656 992.76 162.128 992.76 181.2C992.76 200.784 980.088 210 966.136 210C951.8 210 939.64 200.784 939.64 181.2ZM1082.01 211.152L1089.05 226H1108.89V223.44L1067.93 135.632H1059.1L1017.88 223.44V226H1037.85L1044.76 211.152H1082.01ZM1063.45 165.456L1075.87 195.024H1051.04L1063.45 165.456ZM1176.5 193.36C1186.74 188.368 1192.5 178.384 1192.5 166.992C1192.5 151.12 1181.36 136.272 1160.88 136.272C1148.08 136.144 1135.41 136.272 1122.61 136.272V225.872H1141.81V196.304H1157.81L1176.24 225.872H1196.72V223.184L1176.5 193.36ZM1141.56 180.56V153.04H1160.76C1168.95 153.04 1173.94 159.056 1173.94 166.608C1174.07 174.288 1168.82 180.56 1160.76 180.56H1141.56ZM1214.95 136.528V226H1248.23C1277.16 226 1292.52 203.856 1292.14 180.944C1292.14 158.16 1276.78 136.528 1248.23 136.528H1214.95ZM1234.02 208.72V153.808H1247.98C1264.23 153.808 1273.06 166.736 1273.06 181.072C1273.06 195.408 1264.49 208.72 1247.98 208.72H1234.02Z" fill="white"/>
<path d="M1413.22 178.768L1377.25 136.144H1370.21V226H1389.41V177.488L1411.94 205.648H1414.37L1436.9 177.488V226H1456.1V136.144H1449.19L1413.22 178.768ZM1567.21 181.2C1567.21 151.12 1545.06 134.992 1521.64 134.992C1497.83 134.992 1475.69 150.992 1475.69 181.2C1475.69 211.408 1497.32 227.536 1521.25 227.536C1548.39 227.536 1567.21 208.464 1567.21 181.2ZM1495.01 181.2C1495.01 162.256 1507.56 152.656 1521.64 152.656C1535.59 152.656 1548.13 162.128 1548.13 181.2C1548.13 200.784 1535.46 210 1521.51 210C1507.17 210 1495.01 200.784 1495.01 181.2ZM1656.53 226.256H1662.29V136.4H1643.09V187.216L1592.78 136.016H1586.77V226H1605.84V174.8L1656.53 226.256ZM1714.12 210.768V151.248H1725.77V136.4H1683.27V151.248H1694.92V210.768H1682.25V226H1726.79V210.768H1714.12ZM1762.7 153.04V226H1781.26V153.04H1805.06V136.4H1738.76V153.04H1762.7ZM1906.19 181.2C1906.19 151.12 1884.05 134.992 1860.62 134.992C1836.82 134.992 1814.67 150.992 1814.67 181.2C1814.67 211.408 1836.3 227.536 1860.24 227.536C1887.38 227.536 1906.19 208.464 1906.19 181.2ZM1834 181.2C1834 162.256 1846.54 152.656 1860.62 152.656C1874.58 152.656 1887.12 162.128 1887.12 181.2C1887.12 200.784 1874.45 210 1860.5 210C1846.16 210 1834 200.784 1834 181.2ZM1979.77 193.36C1990.01 188.368 1995.77 178.384 1995.77 166.992C1995.77 151.12 1984.63 136.272 1964.15 136.272C1951.35 136.144 1938.68 136.272 1925.88 136.272V225.872H1945.08V196.304H1961.08L1979.51 225.872H1999.99V223.184L1979.77 193.36ZM1944.83 180.56V153.04H1964.03C1972.22 153.04 1977.21 159.056 1977.21 166.608C1977.34 174.288 1972.09 180.56 1964.03 180.56H1944.83ZM2045.36 210.768V151.248H2057.01V136.4H2014.51V151.248H2026.16V210.768H2013.49V226H2058.03V210.768H2045.36ZM2147.82 226.256H2153.58V136.4H2134.38V187.216L2084.07 136.016H2078.06V226H2097.13V174.8L2147.82 226.256ZM2173.16 181.2C2173.16 210.896 2195.17 227.152 2218.85 227.152C2236 227.152 2252 219.6 2258.79 201.552C2261.73 193.36 2261.99 185.04 2261.48 176.464H2219.49V192.592H2243.94C2240.1 206.032 2231.14 209.744 2218.85 209.744C2202.85 209.744 2192.61 198.224 2192.61 181.2C2192.61 165.2 2202.08 152.528 2218.85 152.528C2229.09 152.528 2236.26 155.984 2240.74 164.688H2259.56C2254.44 143.824 2236.64 135.248 2218.85 135.248C2195.3 135.248 2173.16 151.504 2173.16 181.2Z" fill="white"/>
<path d="M129.613 279.27H216.409V366.18H129.613V279.27Z" fill="#4DC27E"/>
<path d="M216.41 192.361H303.205V279.271H216.41V192.361Z" fill="#4DC27E"/>
<path d="M303.205 192.361C351.141 192.361 390.001 231.272 390.001 279.271H303.205V192.361Z" fill="#FFDA4F"/>
<path d="M303.205 366.18C255.27 366.18 216.41 327.269 216.41 279.27H303.205V366.18Z" fill="#64B5F6"/>
<path d="M129.613 192.361H216.409V279.271H129.613V192.361Z" fill="#1FB767"/>
<path d="M129.613 366.18H216.409V453.089H129.613V366.18Z" fill="#1FB767"/>
<path d="M42.8184 192.361H129.613V279.271H42.8184V192.361Z" fill="#4DC27E"/>
<path d="M216.41 453.09H303.205V540.001H216.41V453.09Z" fill="#4DC27E"/>
<path d="M303.205 366.18H390.001V453.089H303.205V366.18Z" fill="#4DC27E"/>
<path d="M303.205 279.27H390.001V366.18H303.205V279.27Z" fill="#1FB767"/>
<path d="M303.205 453.09H390.001C390.001 501.092 351.141 540.001 303.205 540.001V453.09Z" fill="#1FB767"/>
<path d="M156.232 0H152.76V16.2232H156.232V0Z" fill="#FFDA4F"/>
<path d="M256.914 144.85H46.291V162.232H256.914V144.85Z" fill="#FFDA4F"/>
<path d="M46.2911 162.232V144.85H17.3594L46.2911 162.232Z" fill="#FFDA4F"/>
<path d="M256.914 162.232V144.85H285.846L256.914 162.232Z" fill="#FFDA4F"/>
<path d="M222.197 122.832H81.0098V140.214H222.197V122.832Z" fill="#FFDA4F"/>
<path d="M81.0087 140.214V122.832H57.8633L81.0087 140.214Z" fill="#FFDA4F"/>
<path d="M222.195 140.214V122.832H251.127L222.195 140.214Z" fill="#FFDA4F"/>
<path d="M274.273 166.867H28.9316V184.249H274.273V166.867Z" fill="#FFDA4F"/>
<path d="M34.718 184.248H28.9316V279.269H34.718V184.248Z" fill="#FFDA4F"/>
<path d="M28.9318 184.249V166.867H0L28.9318 184.249Z" fill="#FFDA4F"/>
<path d="M274.273 184.249V166.867H303.205L274.273 184.249Z" fill="#FFDA4F"/>
<path d="M154.496 32.4464C159.289 32.4464 163.175 28.5553 163.175 23.7554C163.175 18.9555 159.289 15.0645 154.496 15.0645C149.702 15.0645 145.816 18.9555 145.816 23.7554C145.816 28.5553 149.702 32.4464 154.496 32.4464Z" fill="#FFDA4F"/>
<path d="M154.496 46.3526C159.289 46.3526 163.175 42.4616 163.175 37.6617C163.175 32.8618 159.289 28.9707 154.496 28.9707C149.702 28.9707 145.816 32.8618 145.816 37.6617C145.816 42.4616 149.702 46.3526 154.496 46.3526Z" fill="#FFDA4F"/>
<path d="M154.496 60.2569C159.289 60.2569 163.175 56.3659 163.175 51.566C163.175 46.7661 159.289 42.875 154.496 42.875C149.702 42.875 145.816 46.7661 145.816 51.566C145.816 56.3659 149.702 60.2569 154.496 60.2569Z" fill="#FFDA4F"/>
<path d="M154.496 74.1632C159.289 74.1632 163.175 70.2721 163.175 65.4722C163.175 60.6723 159.289 56.7812 154.496 56.7812C149.702 56.7812 145.816 60.6723 145.816 65.4722C145.816 70.2721 149.702 74.1632 154.496 74.1632Z" fill="#FFDA4F"/>
<path d="M154.496 88.0694C159.289 88.0694 163.175 84.1784 163.175 79.3785C163.175 74.5786 159.289 70.6875 154.496 70.6875C149.702 70.6875 145.816 74.5786 145.816 79.3785C145.816 84.1784 149.702 88.0694 154.496 88.0694Z" fill="#FFDA4F"/>
<path d="M154.496 101.974C159.289 101.974 163.175 98.0827 163.175 93.2828C163.175 88.4829 159.289 84.5918 154.496 84.5918C149.702 84.5918 145.816 88.4829 145.816 93.2828C145.816 98.0827 149.702 101.974 154.496 101.974Z" fill="#FFDA4F"/>
<path d="M182.849 100.816H165.49V118.198H182.849V100.816Z" fill="#FFDA4F"/>
<path d="M165.49 100.816H143.502V118.198H165.49V100.816Z" fill="#FFDA4F"/>
<path d="M143.502 100.816H126.143V118.198H143.502V100.816Z" fill="#FFDA4F"/>
<path d="M182.85 100.816V118.198H194.422L182.85 100.816Z" fill="#FFDA4F"/>
<path d="M126.143 100.816V118.198H114.57L126.143 100.816Z" fill="#FFDA4F"/>
</svg>
